<svg width="140" height="80" viewBox="0 0 140 80" fill="none" xmlns="http://www.w3.org/2000/svg">
<g filter="url(#filter0_d_0_1)">
<path d="M15.59 59.885H14.96C14.72 59.885 14.6 59.75 14.6 59.48V30.455C14.6 30.185 14.72 30.05 14.96 30.05H15.59C15.83 30.05 15.95 30.185 15.95 30.455V32.39H16.13C16.97 30.83 18.56 30.05 20.9 30.05H24.23C26.06 30.05 27.515 30.605 28.595 31.715C29.705 32.825 30.26 34.31 30.26 36.17V46.88C30.26 48.74 29.705 50.225 28.595 51.335C27.515 52.445 26.06 53 24.23 53H20.9C18.56 53 16.97 52.22 16.13 50.66H15.95V59.48C15.95 59.75 15.83 59.885 15.59 59.885ZM20.99 51.74H24.23C25.73 51.74 26.885 51.305 27.695 50.435C28.505 49.565 28.91 48.365 28.91 46.835V36.215C28.91 34.685 28.505 33.485 27.695 32.615C26.885 31.745 25.73 31.31 24.23 31.31H20.99C19.49 31.31 18.275 31.715 17.345 32.525C16.415 33.335 15.95 34.49 15.95 35.99V47.06C15.95 48.56 16.415 49.715 17.345 50.525C18.275 51.335 19.49 51.74 20.99 51.74ZM46.4171 53H42.5921C40.7621 53 39.2921 52.445 38.1821 51.335C37.1021 50.225 36.5621 48.74 36.5621 46.88V36.17C36.5621 34.31 37.1021 32.825 38.1821 31.715C39.2921 30.605 40.7621 30.05 42.5921 30.05H46.4171C48.2471 30.05 49.7021 30.605 50.7821 31.715C51.8921 32.825 52.4471 34.31 52.4471 36.17V46.88C52.4471 48.74 51.8921 50.225 50.7821 51.335C49.7021 52.445 48.2471 53 46.4171 53ZM42.5921 51.74H46.4171C47.9171 51.74 49.0721 51.305 49.8821 50.435C50.6921 49.565 51.0971 48.365 51.0971 46.835V36.215C51.0971 34.685 50.6921 33.485 49.8821 32.615C49.0721 31.745 47.9171 31.31 46.4171 31.31H42.5921C41.0921 31.31 39.9371 31.745 39.1271 32.615C38.3171 33.485 37.9121 34.685 37.9121 36.215V46.835C37.9121 48.365 38.3171 49.565 39.1271 50.435C39.9371 51.305 41.0921 51.74 42.5921 51.74ZM60.4195 53H59.7895C59.5495 53 59.4295 52.865 59.4295 52.595V21.77C59.4295 21.5 59.5495 21.365 59.7895 21.365H60.4195C60.6595 21.365 60.7795 21.5 60.7795 21.77V52.595C60.7795 52.865 60.6595 53 60.4195 53ZM77.1233 53H73.7933C71.9633 53 70.4933 52.445 69.3833 51.335C68.3033 50.225 67.7633 48.74 67.7633 46.88V36.17C67.7633 34.31 68.3033 32.825 69.3833 31.715C70.4933 30.605 71.9633 30.05 73.7933 30.05H83.0633C83.3033 30.05 83.4233 30.185 83.4233 30.455V52.595C83.4233 52.865 83.3033 53 83.0633 53H82.4333C82.1933 53 82.0733 52.865 82.0733 52.595V50.66H81.8933C81.0533 52.22 79.4633 53 77.1233 53ZM82.0733 47.06V31.67C82.0733 31.43 81.9383 31.31 81.6683 31.31H73.7933C72.2933 31.31 71.1383 31.745 70.3283 32.615C69.5183 33.485 69.1133 34.685 69.1133 36.215V46.835C69.1133 48.365 69.5183 49.565 70.3283 50.435C71.1383 51.305 72.2933 51.74 73.7933 51.74H77.0333C78.5333 51.74 79.7483 51.335 80.6783 50.525C81.6083 49.715 82.0733 48.56 82.0733 47.06ZM91.6154 53H90.9854C90.7454 53 90.6254 52.865 90.6254 52.595V30.455C90.6254 30.185 90.7454 30.05 90.9854 30.05H91.6154C91.8554 30.05 91.9754 30.185 91.9754 30.455V32.48H92.1554C92.4854 31.88 93.0554 31.325 93.8654 30.815C94.7054 30.305 95.7854 30.05 97.1054 30.05H98.9054C99.1754 30.05 99.3104 30.17 99.3104 30.41V30.95C99.3104 31.19 99.1754 31.31 98.9054 31.31H97.0604C95.5304 31.31 94.3004 31.79 93.3704 32.75C92.4404 33.71 91.9754 35.015 91.9754 36.665V52.595C91.9754 52.865 91.8554 53 91.6154 53ZM104.473 26.315V21.86C104.473 21.59 104.593 21.455 104.833 21.455H105.463C105.703 21.455 105.823 21.59 105.823 21.86V26.315C105.823 26.585 105.703 26.72 105.463 26.72H104.833C104.593 26.72 104.473 26.585 104.473 26.315ZM104.473 52.595V30.455C104.473 30.185 104.593 30.05 104.833 30.05H105.463C105.703 30.05 105.823 30.185 105.823 30.455V52.595C105.823 52.865 105.703 53 105.463 53H104.833C104.593 53 104.473 52.865 104.473 52.595ZM120.367 53H112.717C112.447 53 112.312 52.88 112.312 52.64V52.1C112.312 51.86 112.447 51.74 112.717 51.74H120.367C123.397 51.74 124.912 50.54 124.912 48.14V46.79C124.912 45.68 124.717 44.78 124.327 44.09C123.937 43.4 123.232 42.875 122.212 42.515L116.272 40.445C114.712 39.905 113.617 39.245 112.987 38.465C112.387 37.655 112.087 36.53 112.087 35.09C112.087 31.73 113.917 30.05 117.577 30.05H124.822C125.092 30.05 125.227 30.17 125.227 30.41V30.95C125.227 31.19 125.092 31.31 124.822 31.31H117.577C116.197 31.31 115.162 31.625 114.472 32.255C113.812 32.885 113.482 33.605 113.482 34.415V35.63C113.482 36.59 113.722 37.34 114.202 37.88C114.712 38.39 115.492 38.825 116.542 39.185L122.437 41.3C124.027 41.75 125.062 42.485 125.542 43.505C126.022 44.525 126.262 45.95 126.262 47.78C126.262 49.61 125.782 50.945 124.822 51.785C123.862 52.595 122.377 53 120.367 53Z" fill="white"/>
</g>
<defs>
<filter id="filter0_d_0_1" x="9.6" y="20.365" width="121.662" height="48.52" filterUnits="userSpaceOnUse" color-interpolation-filters="sRGB">
<feFlood flood-opacity="0" result="BackgroundImageFix"/>
<feColorMatrix in="SourceAlpha" type="matrix" values="0 0 0 0 0 0 0 0 0 0 0 0 0 0 0 0 0 0 127 0" result="hardAlpha"/>
<feOffset dy="4"/>
<feGaussianBlur stdDeviation="2.5"/>
<feComposite in2="hardAlpha" operator="out"/>
<feColorMatrix type="matrix" values="0 0 0 0 0 0 0 0 0 0 0 0 0 0 0 0 0 0 0.3 0"/>
<feBlend mode="normal" in2="BackgroundImageFix" result="effect1_dropShadow_0_1"/>
<feBlend mode="normal" in="SourceGraphic" in2="effect1_dropShadow_0_1" result="shape"/>
</filter>
</defs>
</svg>
